<svg xmlns="http://www.w3.org/2000/svg" xmlns:xlink="http://www.w3.org/1999/xlink" width="31.702" height="31.702" viewBox="0 0 31.702 31.702"><defs><style>.a{fill:url(#a);}.b{fill:#fff;}</style><linearGradient id="a" y1="-41.23" x2="1" y2="-41.23" gradientUnits="objectBoundingBox"><stop offset="0" stop-color="#00f38d"/><stop offset="1" stop-color="#009eff"/></linearGradient></defs><path class="a" d="M31.7,15.851A15.851,15.851,0,1,1,15.851,0,15.851,15.851,0,0,1,31.7,15.851Zm0,0"/><g transform="translate(5.578 4.613)"><path class="b" d="M106.37,80.5a6,6,0,1,0-9.607,4.8,10.3,10.3,0,0,0-6.681,9.632H91.94a8.436,8.436,0,0,1,8.427-8.427A6.01,6.01,0,0,0,106.37,80.5Zm-6,4.146a4.146,4.146,0,1,1,4.146-4.146A4.15,4.15,0,0,1,100.367,84.649Zm0,0" transform="translate(-90.082 -74.5)"/><path class="b" d="M293.873,272.463h-3.33v-3.33h-1.858v3.33h-3.33v1.858h3.33v3.33h1.858v-3.33h3.33Zm0,0" transform="translate(-273.264 -257.081)"/></g></svg>