<svg xmlns="http://www.w3.org/2000/svg" width="15.062" height="16" viewBox="0 0 15.062 16"><defs><style>.a{fill:#fff;}</style></defs><g transform="translate(-15)"><path class="a" d="M219.833,4.479a4.477,4.477,0,0,0-8.941-.332,6.41,6.41,0,0,1,5.565,4.811h3.376L218.7,7.452a4.463,4.463,0,0,0,1.129-2.973Z" transform="translate(-189.77)"/><path class="a" d="M20.962,161.656a5.475,5.475,0,0,0-4.582,9.086L15,172.583h5.471a5.475,5.475,0,0,0,.49-10.927Zm-3.475,3.96h2.984v1H17.487Zm5.969,2.988H17.487v-1h5.969Z" transform="translate(0 -156.583)"/></g></svg>