<svg xmlns="http://www.w3.org/2000/svg" width="263" height="133.953" viewBox="0 0 263 133.953"><defs><style>.a{fill:#dd220b;}.b{fill:#e8e807;}</style></defs><g transform="translate(20.194)"><path class="a" d="M332.75,256.813V390.76L345.1,378.409V269.236Z" transform="translate(-292.373 -256.813)"/><path class="a" d="M332.75,256.813l42.648.057-5.239,12.4H345.106Z" transform="translate(-292.373 -256.813)"/><path class="a" d="M332.735,557.823h38.732l-12.372-12.372h-14Z" transform="translate(-292.365 -423.87)"/><path class="a" d="M650.514,256.813V390.76l-12.351-12.351V269.236Z" transform="translate(-469.141 -256.813)"/><path class="a" d="M608.883,256.813l-42.648.057,5.239,12.4h25.054Z" transform="translate(-427.511 -256.813)"/><path class="a" d="M614.28,557.823H575.548l12.373-12.372h14Z" transform="translate(-432.9 -423.87)"/><path class="a" d="M430.523,292.879l-24.141-23.531,5.239-12.4,27.8,27.3,27.9-27.3,5.239,12.4-77.226,75.727V327.594Z" transform="translate(-328.595 -256.891)"/><path class="a" d="M395.323,469.083,407.687,457.5v49.419l-12.372-12.372Z" transform="translate(-328.585 -372.966)"/><path class="a" d="M575.548,429.765l11.985-5.265.388,50.947-12.373,12.372Z" transform="translate(-432.9 -353.867)"/><path class="a" d="M512,362.635,520.424,354l30.328,29.7-11.985,5.265Z" transform="translate(-396.12 -313.063)"/><rect class="a" width="12.215" height="12.637" transform="translate(113.774 82.777)"/><rect class="a" width="12.215" height="12.637" transform="translate(96.083 82.777)"/><rect class="a" width="12.215" height="12.637" transform="translate(96.083 99.626)"/><rect class="a" width="12.215" height="12.637" transform="translate(113.774 99.626)"/><path class="a" d="M332.75,322.785l42.648.057-5.239,12.4H345.106Z" transform="translate(-292.373 -294.996)"/><rect class="b" width="55" height="24" transform="translate(-20.194 54.788)"/><rect class="b" width="55" height="24" transform="translate(187.806 54.788)"/></g></svg>