<svg id="Layer_1" data-name="Layer 1" xmlns="http://www.w3.org/2000/svg" viewBox="0 0 90 90"><defs><style>.cls-1{fill:#ed1c24;}</style></defs><g id="Group_599" data-name="Group 599"><path id="Path_179" data-name="Path 179" class="cls-1" d="M58.64,26.64,45,40.28,31.36,26.64a2.82,2.82,0,0,0-4,0h0l-.74.74a2.83,2.83,0,0,0,0,4L40.28,45,26.64,58.64a2.81,2.81,0,0,0,0,4l.74.74a2.82,2.82,0,0,0,4,0h0L45,49.72,58.64,63.36a2.83,2.83,0,0,0,4,0h0l.74-.74a2.81,2.81,0,0,0,0-4L49.72,45,63.36,31.36a2.81,2.81,0,0,0,0-4l-.74-.73A2.82,2.82,0,0,0,58.64,26.64Z"/></g><path class="cls-1" d="M45,90A45,45,0,1,1,90,45,45.05,45.05,0,0,1,45,90ZM45,5.87A39.13,39.13,0,1,0,84.13,45,39.17,39.17,0,0,0,45,5.87Z"/></svg>