<svg xmlns="http://www.w3.org/2000/svg" width="24" height="24" viewBox="0 0 24 24"><defs><style>.a{fill:none;}.b{fill:silver;}.c{fill:#fff;}</style></defs><g transform="translate(-452 -9)"><g transform="translate(452 9)"><path class="a" d="M0,0H24V24H0Z"/><path class="b" d="M0,7.5a11.817,11.817,0,0,1,22,0,11.816,11.816,0,0,1-22,0Z" transform="translate(1 5)"/></g><path class="c" d="M5,10a5,5,0,1,1,5-5A5,5,0,0,1,5,10Z" transform="translate(459 16.5)"/><path class="b" d="M3,0A3,3,0,1,0,6,3,3,3,0,0,0,3,0Z" transform="translate(461 18.5)"/></g></svg>