<svg xmlns="http://www.w3.org/2000/svg" width="20.629" height="20.629" viewBox="0 0 20.629 20.629"><defs><style>.a{fill:#fff;}.b{fill:#5f5f5f;}.c{fill:#e5e5e5;}</style></defs><g transform="translate(-1 -1)"><path class="a" d="M0,0H13V13H0V0Z" transform="translate(5 4.5)"/><g transform="translate(1 1)"><path class="b" d="M23.976,11H12a1,1,0,0,0-1,1V23.976a1,1,0,0,0,1,1H23.976a1,1,0,0,0,1-1V12A1,1,0,0,0,23.976,11Zm.333,12.976a.333.333,0,0,1-.333.333H12a.333.333,0,0,1-.333-.333V12A.333.333,0,0,1,12,11.665H23.976a.333.333,0,0,1,.333.333Z" transform="translate(-7.673 -7.673)"/><path class="a" d="M24,3.662h3.993a1,1,0,0,0,1-1V2a1,1,0,0,0-1-1H24a1,1,0,0,0-1,1v.665A1,1,0,0,0,24,3.662ZM23.665,2A.333.333,0,0,1,24,1.665h3.993A.333.333,0,0,1,28.324,2v.665A.333.333,0,0,1,27.991,3H24a.333.333,0,0,1-.333-.333Z" transform="translate(-15.68 -1)"/><path class="a" d="M27.991,55H24a1,1,0,0,0-1,1v.665a1,1,0,0,0,1,1h3.993a1,1,0,0,0,1-1V56A1,1,0,0,0,27.991,55Zm.333,1.664a.333.333,0,0,1-.333.333H24a.333.333,0,0,1-.333-.333V56A.333.333,0,0,1,24,55.665h3.993a.333.333,0,0,1,.333.333Z" transform="translate(-15.68 -37.033)"/><path class="a" d="M56.664,23H56a1,1,0,0,0-1,1v3.993a1,1,0,0,0,1,1h.665a1,1,0,0,0,1-1V24A1,1,0,0,0,56.664,23ZM57,27.991a.333.333,0,0,1-.333.333H56a.333.333,0,0,1-.333-.333V24A.333.333,0,0,1,56,23.665h.665A.333.333,0,0,1,57,24Z" transform="translate(-37.033 -15.68)"/><path class="a" d="M2.664,23H2a1,1,0,0,0-1,1v3.993a1,1,0,0,0,1,1h.665a1,1,0,0,0,1-1V24A1,1,0,0,0,2.664,23ZM3,27.991a.333.333,0,0,1-.333.333H2a.333.333,0,0,1-.333-.333V24A.333.333,0,0,1,2,23.665h.665A.333.333,0,0,1,3,24Z" transform="translate(-1 -15.68)"/><path class="c" d="M17.662,47H15.333a.333.333,0,1,0,0,.665h2.329a.333.333,0,1,0,0-.665Z" transform="translate(-10.342 -31.695)"/><path class="c" d="M25.665,47h-.333a.333.333,0,0,0,0,.665h.333a.333.333,0,1,0,0-.665Z" transform="translate(-17.015 -31.695)"/></g></g></svg>