<svg xmlns="http://www.w3.org/2000/svg" width="24.327" height="24.327" viewBox="0 0 24.327 24.327"><defs><style>.a{fill:#c42126;}.b{fill:#e7e7e7;}.c{fill:#dc3027;}.d{fill:#f3f4f5;}.e{fill:#e73625;}.f{fill:#283991;}.g{fill:#efefef;}</style></defs><g transform="translate(0.051 0)"><rect class="a" width="24.215" transform="translate(0.005 13.266)"/><rect class="a" width="21.623" transform="translate(1.3 6.643)"/><rect class="a" width="23.395" transform="translate(0.414 8.851)"/><path class="a" d="M101.779,431.346h0Z" transform="translate(-96.462 -409.251)"/><path class="a" d="M223.719,0c-.245,0-.489.009-.73.023h1.461C224.208.009,223.965,0,223.719,0Z" transform="translate(-211.608 0)"/><rect class="a" width="24.223" transform="translate(0 11.058)"/></g><path class="b" d="M289.625,45.8h5.965a12.552,12.552,0,0,0-2.444-2.272h-4.479A11.873,11.873,0,0,1,289.625,45.8Z" transform="translate(-274.098 -41.229)"/><path class="c" d="M245.784,2.7h4.479A12.422,12.422,0,0,0,243.781.43H243.4C244.529.573,245.05,1.411,245.784,2.7Z" transform="translate(-231.024 -0.407)"/><path class="b" d="M325.688,131.982a12.412,12.412,0,0,0-.886-2.272H317.94c.139.73.249,1.492.33,2.272Z" transform="translate(-301.827 -123.066)"/><path class="c" d="M300.452,88.885H307.7a12.5,12.5,0,0,0-1.483-2.273h-6.331A20.066,20.066,0,0,1,300.452,88.885Z" transform="translate(-284.725 -82.176)"/><path class="b" d="M329.178,218.165h7.565c.036-.384.056-.774.056-1.168,0-.373-.02-.74-.051-1.1H329.18C329.2,216.649,329.2,217.41,329.178,218.165Z" transform="translate(-312.472 -204.835)"/><path class="c" d="M326.3,175.074a12.439,12.439,0,0,0-.414-2.272h-7.737c.078.744.129,1.505.154,2.272Z" transform="translate(-302.03 -163.951)"/><path class="b" d="M315.465,304.348h6.96a12.4,12.4,0,0,0,.9-2.273H315.8C315.719,302.857,315.606,303.619,315.465,304.348Z" transform="translate(-299.482 -286.603)"/><path class="c" d="M329.231,261.26a12.406,12.406,0,0,0,.428-2.272h-7.8c-.027.767-.08,1.529-.159,2.272Z" transform="translate(-305.388 -245.723)"/><path class="b" d="M293.648,390.533a12.562,12.562,0,0,0,2.48-2.272h-5.861a11.6,11.6,0,0,1-.976,2.272Z" transform="translate(-274.689 -368.439)"/><g transform="translate(11.307 17.549)"><path class="c" d="M303.625,347.44h6.081a12.514,12.514,0,0,0,1.5-2.273H304.2A19.774,19.774,0,0,1,303.625,347.44Z" transform="translate(-299.574 -345.167)"/><path class="c" d="M226.894,473.46l-.076,0Z" transform="translate(-226.818 -466.691)"/><path class="c" d="M236.837,433.592a12.433,12.433,0,0,0,7.123-2.232h-4.521C238.637,432.742,238.107,433.592,236.837,433.592Z" transform="translate(-236.309 -426.814)"/></g><path class="a" d="M228.708,473.518c-.152,0-.3,0-.453-.009C228.407,473.514,228.558,473.518,228.708,473.518Z" transform="translate(-216.538 -449.191)"/><path class="d" d="M66.55,43.525H56.191A12.555,12.555,0,0,0,53.747,45.8H67.508A11.875,11.875,0,0,0,66.55,43.525Z" transform="translate(-50.912 -41.229)"/><path class="e" d="M100.092,2.7h10.359A3.982,3.982,0,0,0,107.65.43h-1.076A12.42,12.42,0,0,0,100.092,2.7Z" transform="translate(-95.05 -0.407)"/><path class="d" d="M8.835,131.982H25.861c-.081-.781-.191-1.543-.33-2.272H9.721A12.406,12.406,0,0,0,8.835,131.982Z" transform="translate(-8.369 -123.066)"/><path class="e" d="M27.12,86.609a12.506,12.506,0,0,0-1.483,2.273h15.81a20.03,20.03,0,0,0-.566-2.273Z" transform="translate(-24.285 -82.173)"/><path class="d" d="M0,217c0,.394.021.783.056,1.168H17.647c.026-.755.026-1.517,0-2.272H.053C.022,216.26,0,216.628,0,217Z" transform="translate(-0.002 -204.838)"/><path class="e" d="M.978,175.074H18.573c-.025-.767-.077-1.528-.154-2.272H1.392A12.426,12.426,0,0,0,.978,175.074Z" transform="translate(-0.927 -163.951)"/><path class="d" d="M26.177,302.072h-17a12.4,12.4,0,0,0,.9,2.273H25.841C25.982,303.616,26.094,302.854,26.177,302.072Z" transform="translate(-8.691 -286.6)"/><path class="e" d="M1.5,261.26h17c.079-.744.132-1.5.159-2.272H1.068A12.428,12.428,0,0,0,1.5,261.26Z" transform="translate(-1.012 -245.723)"/><path class="d" d="M57.233,390.533H67.465a11.6,11.6,0,0,0,.976-2.272H54.753A12.554,12.554,0,0,0,57.233,390.533Z" transform="translate(-51.865 -368.439)"/><g transform="translate(1.385 17.549)"><path class="e" d="M26.254,345.166a12.515,12.515,0,0,0,1.5,2.273H41.446a19.818,19.818,0,0,0,.573-2.273Z" transform="translate(-26.254 -345.166)"/><path class="e" d="M108.387,433.579l.076,0c.15.005.3.009.453.009,1.27,0,2.306-.849,3.109-2.232H101.793A12.424,12.424,0,0,0,108.387,433.579Z" transform="translate(-97.809 -426.813)"/></g><path class="f" d="M13.187.123A12.487,12.487,0,0,0,1.008,11.482h12.18V.123Z" transform="translate(-0.955 -0.117)"/><g transform="translate(0.42 0.866)"><path class="g" d="M32.9,134.187l.19.586H33.7l-.5.362.19.586-.5-.363-.5.363.19-.586-.5-.362h.617Z" transform="translate(-30.819 -127.976)"/><path class="g" d="M32.9,173.438l.19.586H33.7l-.5.362.19.586-.5-.363-.5.363.19-.586-.5-.362h.617Z" transform="translate(-30.819 -165.157)"/><path class="g" d="M72.152,75.3l.19.586h.616l-.5.363.19.586-.5-.362-.5.362.19-.586-.5-.363h.617Z" transform="translate(-68.003 -72.19)"/><path class="g" d="M72.152,114.554l.19.586h.616l-.5.362.19.586-.5-.362-.5.362.19-.586-.5-.362h.617Z" transform="translate(-68.003 -109.378)"/><path class="g" d="M72.152,153.812l.19.586h.616l-.5.362.19.586-.5-.362-.5.362.19-.586-.5-.362h.617Z" transform="translate(-68.003 -146.566)"/><path class="g" d="M8.478,165.106l-.19-.586.5-.362H8.17l-.014-.043c-.068.209-.129.421-.185.635l.009-.006Z" transform="translate(-7.971 -156.325)"/><path class="g" d="M37.161,96.461l.5-.362.5.362-.19-.586.5-.362H37.85l-.19-.586-.19.586h-.227c-.042.064-.083.128-.124.193l.234.169Z" transform="translate(-35.581 -90.785)"/><path class="g" d="M77.685,47.739l.5.362-.19-.586.5-.362h-.356q-.454.339-.874.718l-.075.231Z" transform="translate(-73.536 -45.532)"/><path class="g" d="M116.452,27.058l.5-.362.5.362-.19-.586.5-.362h-.616l-.026-.079c-.209.107-.416.218-.618.336l.145.105Z" transform="translate(-110.731 -25.524)"/><path class="g" d="M111.411,55.671l.19.586h.616l-.5.362.19.586-.5-.363-.5.363.19-.586-.5-.362h.617Z" transform="translate(-105.191 -53.601)"/><path class="g" d="M111.411,94.929l.19.586h.616l-.5.362.19.586-.5-.363-.5.363.19-.586-.5-.362h.617Z" transform="translate(-105.191 -90.788)"/><path class="g" d="M111.411,134.187l.19.586h.616l-.5.362.19.586-.5-.363-.5.363.19-.586-.5-.362h.617Z" transform="translate(-105.191 -127.976)"/><path class="g" d="M111.411,173.438l.19.586h.616l-.5.362.19.586-.5-.363-.5.363.19-.586-.5-.362h.617Z" transform="translate(-105.191 -165.157)"/><path class="g" d="M150.669,36.038l.19.586h.616l-.5.363.19.586-.5-.362-.5.362.19-.586-.5-.363h.616Z" transform="translate(-142.379 -35.003)"/><path class="g" d="M150.669,75.3l.19.586h.616l-.5.363.19.586-.5-.362-.5.362.19-.586-.5-.363h.616Z" transform="translate(-142.379 -72.19)"/><path class="g" d="M150.669,114.554l.19.586h.616l-.5.362.19.586-.5-.362-.5.362.19-.586-.5-.362h.616Z" transform="translate(-142.379 -109.378)"/><path class="g" d="M150.669,153.812l.19.586h.616l-.5.362.19.586-.5-.362-.5.362.19-.586-.5-.362h.616Z" transform="translate(-142.379 -146.566)"/><path class="g" d="M189.927,16.413l.19.586h.616l-.5.362.19.586-.5-.363-.5.363.19-.586-.5-.362h.616Z" transform="translate(-179.566 -16.413)"/><path class="g" d="M189.927,55.671l.19.586h.616l-.5.362.19.586-.5-.363-.5.363.19-.586-.5-.362h.616Z" transform="translate(-179.566 -53.601)"/><path class="g" d="M189.927,94.929l.19.586h.616l-.5.362.19.586-.5-.363-.5.363.19-.586-.5-.362h.616Z" transform="translate(-179.566 -90.788)"/><path class="g" d="M189.927,134.187l.19.586h.616l-.5.362.19.586-.5-.363-.5.363.19-.586-.5-.362h.616Z" transform="translate(-179.566 -127.976)"/><path class="g" d="M189.927,173.438l.19.586h.616l-.5.362.19.586-.5-.363-.5.363.19-.586-.5-.362h.616Z" transform="translate(-179.566 -165.157)"/></g></svg>