<svg xmlns="http://www.w3.org/2000/svg" width="20.112" height="20.112" viewBox="0 0 20.112 20.112"><defs><style>.a{fill:none;}.b{fill:#fff;}</style></defs><path class="a" d="M0,0H20.112V20.112H0Z"/><path class="b" d="M16.408,2.676h-3.5a2.5,2.5,0,0,0-4.726,0h-3.5A1.681,1.681,0,0,0,3,4.352V16.084A1.681,1.681,0,0,0,4.676,17.76H16.408a1.681,1.681,0,0,0,1.676-1.676V4.352A1.681,1.681,0,0,0,16.408,2.676Zm-5.866,0a.838.838,0,1,1-.838.838A.84.84,0,0,1,10.542,2.676Zm0,3.352A2.514,2.514,0,1,1,8.028,8.542,2.511,2.511,0,0,1,10.542,6.028ZM15.57,16.084H5.514V14.911c0-1.676,3.352-2.6,5.028-2.6s5.028.922,5.028,2.6Z" transform="translate(-0.486 -0.162)"/></svg>